<?xml version="1.0" encoding="utf-8"?>
<!-- Generator: Adobe Illustrator 23.0.3, SVG Export Plug-In . SVG Version: 6.00 Build 0)  -->
<svg version="1.1" id="图层_1" xmlns="http://www.w3.org/2000/svg" xmlns:xlink="http://www.w3.org/1999/xlink" x="0px" y="0px"
	 viewBox="0 0 31.61 27.88" style="enable-background:new 0 0 31.61 27.88;" xml:space="preserve">
<style type="text/css">
	.st0{fill:#0F3181;}
</style>
<path class="st0" d="M20.59,27.88c0,0-0.63-3.99,3.09-7.05c3.73-3.06,4.16-7.21,4.16-9.67s-1.35-4.53-3.35-4.22s-2.07,2.6-1.97,3.69
	c0.11,1.09,0.74,6.99-5.55,7.8c-6.29,0.81-7.52-5.73-6.99-7.52c0.07-0.23,0.72-3.3,3.66-4.57c1.7-0.74,3.27-0.48,3.88-0.35
	c2.34,1.05,4.54,0.59,5.22-0.59c0.55-0.95-0.03-2.16-0.09-2.25c-0.71-0.98-1.75-1.86-3.46-2.32C16.35,0.06,6.75-0.35,4.78,11.62
	c0,0-0.64,6.1,5.58,11.18S19.11,27.58,20.59,27.88z"/>
</svg>
